<svg viewBox="0 0 47 20" fill="none" xmlns="http://www.w3.org/2000/svg">
    <path d="M8.7263 2.47533C9.26986 1.80899 9.63872 0.914283 9.54144 0C8.74574 0.038778 7.77475 0.514501 7.21259 1.18137C6.70783 1.75244 6.26108 2.68461 6.37755 3.56056C7.27076 3.6365 8.16314 3.12298 8.7263 2.47533Z" fill="black"/>
    <path d="M9.5308 3.73139C8.23365 3.65566 7.13075 4.45294 6.51129 4.45294C5.8915 4.45294 4.9429 3.76955 3.91692 3.78797C2.58155 3.8072 1.34247 4.5472 0.664825 5.72416C-0.72898 8.07866 0.297 11.5712 1.6524 13.4888C2.31062 14.4375 3.10387 15.4821 4.14912 15.4446C5.13669 15.4066 5.52378 14.8178 6.72423 14.8178C7.92379 14.8178 8.27247 15.4446 9.31788 15.4256C10.402 15.4066 11.0798 14.4764 11.738 13.5268C12.4931 12.4453 12.8022 11.4011 12.8216 11.3437C12.8022 11.3248 10.7311 10.5461 10.7119 8.21114C10.6924 6.25607 12.3379 5.32613 12.4154 5.26846C11.4861 3.92144 10.0342 3.76955 9.5308 3.73139Z" fill="black"/>
    <path d="M20.8253 1.0857C23.6446 1.0857 25.6078 2.99042 25.6078 5.76355C25.6078 8.54659 23.6042 10.4612 20.7546 10.4612H17.633V15.3266H15.3777V1.08569L20.8253 1.0857ZM17.633 8.60579H20.2208C22.1844 8.60579 23.302 7.56967 23.302 5.77345C23.302 3.97742 22.1844 2.95101 20.2309 2.95101H17.633V8.60579Z" fill="black"/>
    <path d="M26.1975 12.3757C26.1975 10.5597 27.6173 9.44459 30.1348 9.3064L33.0346 9.13869V8.33938C33.0346 7.18466 32.239 6.49385 30.9101 6.49385C29.6512 6.49385 28.8657 7.08587 28.6746 8.01367H26.6205C26.7413 6.13845 28.3724 4.75684 30.9905 4.75684C33.5582 4.75684 35.1994 6.08915 35.1994 8.17148V15.3265H33.115V13.6191H33.0649C32.4507 14.7739 31.1114 15.5041 29.7219 15.5041C27.6476 15.5041 26.1975 14.2409 26.1975 12.3757ZM33.0346 11.4382V10.6191L30.4265 10.7769C29.1276 10.8658 28.3926 11.4283 28.3926 12.3165C28.3926 13.2243 29.1579 13.8165 30.3259 13.8165C31.8463 13.8165 33.0346 12.7901 33.0346 11.4382Z" fill="black"/>
    <path d="M37.1664 19.1461V17.4189C37.3272 17.4583 37.6896 17.4583 37.871 17.4583C38.8779 17.4583 39.4217 17.0439 39.7538 15.9781C39.7538 15.9583 39.9453 15.3465 39.9453 15.3366L36.1191 4.94458H38.4751L41.1538 13.3925H41.1938L43.8725 4.94458H46.1683L42.2007 15.8694C41.2948 18.3861 40.2475 19.1954 38.0524 19.1954C37.871 19.1954 37.3272 19.1756 37.1664 19.1461Z" fill="black"/>
</svg>
