<svg viewBox="0 0 49 20" fill="none" xmlns="http://www.w3.org/2000/svg">
    <path d="M22.6948 9.36019V14.9744H20.8948V1.08984H25.5748C26.7148 1.08984 27.7948 1.51242 28.6348 2.29719C29.4748 3.0216 29.8948 4.10822 29.8948 5.2552C29.8948 6.40218 29.4748 7.42843 28.6348 8.2132C27.7948 8.99798 26.7748 9.42055 25.5748 9.42055L22.6948 9.36019ZM22.6948 2.78013V7.60953H25.6948C26.3548 7.60953 27.0148 7.36806 27.4348 6.88512C28.3948 5.97961 28.3948 4.47042 27.4948 3.56491L27.4348 3.50454C26.9548 3.0216 26.3548 2.71977 25.6948 2.78013H22.6948Z" fill="#5F6368"/>
    <path d="M34.0348 5.19482C35.3548 5.19482 36.3748 5.55703 37.1548 6.28144C37.9348 7.00585 38.2948 7.97173 38.2948 9.17908V14.9744H36.6148V13.6463H36.5548C35.8348 14.7329 34.8148 15.2762 33.6148 15.2762C32.5948 15.2762 31.6948 14.9744 30.9748 14.3707C30.3148 13.767 29.8948 12.9219 29.8948 12.0163C29.8948 11.0505 30.2548 10.2657 30.9748 9.66202C31.6948 9.05834 32.7148 8.81687 33.9148 8.81687C34.9948 8.81687 35.8348 8.99797 36.4948 9.42055V8.99797C36.4948 8.3943 36.2548 7.79062 35.7748 7.42842C35.2948 7.00585 34.6948 6.76438 34.0348 6.76438C33.0148 6.76438 32.2348 7.18695 31.6948 8.03209L30.1348 7.06621C31.0948 5.7985 32.3548 5.19482 34.0348 5.19482ZM31.7548 12.0767C31.7548 12.5597 31.9948 12.9822 32.3548 13.2237C32.7748 13.5255 33.2548 13.7066 33.7348 13.7066C34.4548 13.7066 35.1748 13.4048 35.7148 12.8615C36.3148 12.3182 36.6148 11.6541 36.6148 10.9297C36.0748 10.5072 35.2948 10.2657 34.2748 10.2657C33.5548 10.2657 32.9548 10.4468 32.4748 10.809C31.9948 11.1108 31.7548 11.5334 31.7548 12.0767Z" fill="#5F6368"/>
    <path d="M48.015 5.49658L42.075 19.2H40.275L42.495 14.431L38.595 5.55695H40.515L43.335 12.3785H43.395L46.155 5.55695H48.015V5.49658Z" fill="#5F6368"/>
    <path d="M15.5548 8.15287C15.5548 7.60956 15.4948 7.06626 15.4348 6.52295H7.93481V9.60169H12.1948C12.0148 10.5676 11.4748 11.4731 10.6348 12.0164V14.0085H13.2148C14.7148 12.6201 15.5548 10.5676 15.5548 8.15287Z" fill="#4285F4"/>
    <path d="M7.93498 15.9403C10.095 15.9403 11.895 15.2159 13.215 14.0085L10.635 12.0164C9.91498 12.4993 9.01498 12.8012 7.93498 12.8012C5.89498 12.8012 4.09498 11.4127 3.49498 9.48096H0.85498V11.5335C2.23498 14.25 4.93498 15.9403 7.93498 15.9403Z" fill="#34A853"/>
    <path d="M3.495 9.48084C3.135 8.51496 3.135 7.42835 3.495 6.4021V4.34961H0.855C-0.285 6.58321 -0.285 9.23937 0.855 11.5333L3.495 9.48084Z" fill="#FBBC04"/>
    <path d="M7.93479 3.14236C9.07479 3.14236 10.1548 3.56493 10.9948 4.3497L13.2748 2.05574C11.8348 0.727657 9.9148 -0.0571196 7.9948 0.00324785C4.9948 0.00324785 2.23479 1.69354 0.914795 4.41007L3.5548 6.46257C4.09479 4.53081 5.89479 3.14236 7.93479 3.14236Z" fill="#EA4335"/>
</svg>
