<svg viewBox="0 0 66 20" fill="none" xmlns="http://www.w3.org/2000/svg">
    <path d="M5.62587 13.5092C5.29343 13.2977 4.9355 13.1294 4.56069 13.0084C4.18541 12.8886 3.79374 12.8284 3.39987 12.8298C3.15538 12.8276 2.91155 12.8554 2.67381 12.9126C2.47311 12.9594 2.28193 13.0404 2.10861 13.1521C1.96033 13.2479 1.8355 13.3759 1.74341 13.5266C1.6556 13.6755 1.61047 13.8458 1.61298 14.0187C1.60658 14.1719 1.64594 14.3236 1.72602 14.4542C1.80924 14.5779 1.92112 14.6795 2.05209 14.7504C2.21497 14.8397 2.38894 14.9071 2.56947 14.9507C2.79732 15.008 3.02808 15.0531 3.26074 15.0857L3.80855 15.1597C4.12664 15.2043 4.44067 15.2742 4.74764 15.3688C5.03939 15.4565 5.31531 15.5903 5.565 15.7651C5.80286 15.9328 6.0004 16.1515 6.14324 16.4053C6.29561 16.6932 6.37053 17.0159 6.36062 17.3416C6.36821 17.7148 6.27988 18.0837 6.10411 18.4129C5.93499 18.7226 5.69878 18.9905 5.41283 19.1968C5.10632 19.4166 4.76335 19.5803 4.39983 19.6802C4.00231 19.7922 3.59109 19.8479 3.17814 19.8457C2.8985 19.8443 2.6194 19.821 2.34339 19.776C2.04887 19.7315 1.75818 19.6645 1.47386 19.5757C1.20425 19.4856 0.9425 19.3735 0.69128 19.2403C0.44304 19.1133 0.21095 18.9569 0 18.7744L0.69128 17.7509C0.84075 17.8861 1.00565 18.003 1.18256 18.0993C1.58967 18.3226 2.03011 18.4785 2.48686 18.561C2.71771 18.6041 2.95201 18.6259 3.18683 18.6263C3.42944 18.6294 3.6716 18.6046 3.90854 18.5523C4.11521 18.5071 4.31335 18.4292 4.49548 18.3215C4.6529 18.2287 4.78798 18.1023 4.89111 17.9513C4.99037 17.8034 5.04196 17.6286 5.03893 17.4505C5.04507 17.149 4.87521 16.8717 4.60417 16.7406C4.17648 16.5411 3.71755 16.4174 3.2477 16.3748L2.63033 16.2877C2.33479 16.2466 2.04369 16.1781 1.7608 16.083C1.48912 15.9934 1.23473 15.8579 1.00866 15.6823C0.78501 15.508 0.60244 15.2864 0.4739 15.0334C0.3271 14.7419 0.25254 14.4193 0.25651 14.0928C0.24997 13.7249 0.33515 13.3611 0.50433 13.0345C0.6674 12.7271 0.89777 12.4606 1.17822 12.255C1.47864 12.0366 1.8159 11.8744 2.17383 11.7759C2.56975 11.6633 2.97962 11.6076 3.39117 11.6104C3.92325 11.6035 4.45304 11.6814 4.96068 11.8413C5.4215 11.9909 5.86018 12.2018 6.26497 12.4684L5.62587 13.5092ZM9.95174 14.1189C10.3088 14.1156 10.6627 14.1868 10.9908 14.3279C11.2993 14.4617 11.5752 14.6607 11.7995 14.9115C12.031 15.1754 12.2096 15.4814 12.3256 15.813C12.4566 16.1864 12.5213 16.58 12.5169 16.9758V17.2022V17.42H8.48224C8.51134 17.6418 8.58214 17.8561 8.69094 18.0514C8.78484 18.2192 8.91034 18.3671 9.06054 18.4869C9.20434 18.5993 9.36814 18.6835 9.54314 18.7352C9.72384 18.7884 9.91124 18.8148 10.0996 18.8136C10.3789 18.8114 10.6556 18.7598 10.9169 18.6611C11.1899 18.5584 11.444 18.4113 11.6691 18.2256L12.256 19.0749C11.9489 19.3448 11.5891 19.548 11.1995 19.6715C10.8174 19.7865 10.4203 19.8437 10.0213 19.8413C9.63784 19.8455 9.25704 19.776 8.89964 19.6367C8.57304 19.5058 8.27694 19.3086 8.03014 19.0574C7.77884 18.7998 7.58344 18.4929 7.45624 18.156C7.31584 17.7801 7.24654 17.3814 7.25194 16.9801C7.24774 16.5836 7.31544 16.1896 7.45184 15.8173C7.57464 15.481 7.76394 15.1729 8.00834 14.9115C8.25334 14.6571 8.54984 14.4581 8.87794 14.3279C9.21854 14.1874 9.58334 14.1149 9.95174 14.1145V14.1189ZM9.93004 15.1772C9.73734 15.1735 9.54564 15.206 9.36484 15.273C9.20224 15.3326 9.05404 15.4261 8.93004 15.5473C8.80744 15.6736 8.70874 15.8212 8.63884 15.9828C8.56024 16.1544 8.50614 16.3362 8.47794 16.5228H11.2952C11.2615 16.1547 11.1089 15.8076 10.8604 15.5343C10.612 15.2896 10.2737 15.1588 9.92574 15.1728L9.93004 15.1772ZM16.2298 14.1189C16.6201 14.1152 17.0073 14.1892 17.3688 14.3367C17.7063 14.4803 18.0044 14.7028 18.2384 14.9855L17.4775 15.7956C17.3026 15.6186 17.0999 15.4715 16.8776 15.3601C16.6562 15.261 16.4157 15.2119 16.1732 15.2164C15.9552 15.2141 15.7391 15.2571 15.5385 15.3427C15.3472 15.4326 15.1769 15.5617 15.0385 15.7215C14.8905 15.8803 14.7753 16.0668 14.6994 16.2703C14.5365 16.7279 14.5365 17.2279 14.6994 17.6856C14.7748 17.8907 14.89 18.0786 15.0385 18.2387C15.1817 18.3916 15.3548 18.5132 15.5472 18.5958C15.7478 18.6814 15.9639 18.7244 16.1819 18.7221C16.438 18.7226 16.6908 18.6645 16.921 18.5523C17.1408 18.4493 17.3432 18.3127 17.521 18.1473L18.2558 18.9878C18.0117 19.2709 17.705 19.4931 17.3602 19.6367C17.0003 19.7846 16.6144 19.8587 16.2254 19.8544C15.8236 19.8602 15.4246 19.7862 15.0515 19.6367C14.3664 19.3622 13.8293 18.81 13.5733 18.1168C13.3008 17.3836 13.3008 16.5767 13.5733 15.8435C13.8294 15.1578 14.3609 14.6111 15.0385 14.3367C15.4154 14.184 15.8189 14.1084 16.2254 14.1145L16.2298 14.1189ZM24.3381 17.3938C24.3482 17.7769 24.274 18.1576 24.1208 18.5087C23.9906 18.8013 23.7976 19.0615 23.5556 19.2708C23.3197 19.4691 23.046 19.6172 22.7512 19.7063C22.1449 19.8923 21.4968 19.8923 20.8904 19.7063C20.5944 19.6171 20.3194 19.469 20.0818 19.2708C19.8382 19.0629 19.6449 18.8023 19.5166 18.5087C19.3662 18.1568 19.2935 17.7765 19.3036 17.3938V14.2583H20.4948V17.3067C20.4888 17.533 20.5226 17.7586 20.5948 17.9731C20.655 18.1377 20.7516 18.2866 20.8774 18.4086C21.0007 18.5246 21.1497 18.6096 21.3122 18.6568C21.6525 18.759 22.0153 18.759 22.3556 18.6568C22.5181 18.6096 22.6671 18.5246 22.7904 18.4086C22.9162 18.2866 23.0128 18.1377 23.073 17.9731C23.1467 17.7589 23.182 17.5333 23.1773 17.3067V14.2583H24.3686L24.3381 17.3938ZM28.6641 14.1189C28.8286 14.1182 28.993 14.1313 29.1553 14.1581C29.304 14.1819 29.4497 14.2213 29.5901 14.2757L29.3075 15.4515C29.17 15.3825 29.0237 15.3327 28.8727 15.3035C28.7198 15.2704 28.564 15.2528 28.4075 15.2512C28.2291 15.249 28.0519 15.2815 27.8858 15.347C27.7299 15.409 27.5901 15.5058 27.4771 15.6301C27.3586 15.7645 27.2684 15.9215 27.2119 16.0917C27.1452 16.2909 27.1128 16.5 27.1163 16.7101V19.702H25.9076V14.2583H27.0815V14.8723C27.2489 14.6221 27.4821 14.4232 27.7554 14.2975C28.0403 14.1724 28.3487 14.11 28.6597 14.1145L28.6641 14.1189ZM32.6422 14.1189C32.9993 14.1156 33.3531 14.1868 33.6813 14.3279C33.9897 14.4617 34.2656 14.6607 34.4899 14.9115C34.7291 15.1736 34.9152 15.4798 35.0377 15.813C35.1686 16.1865 35.2334 16.58 35.229 16.9758V17.2022V17.42H31.1683C31.1974 17.6418 31.2682 17.8561 31.377 18.0514C31.4709 18.2192 31.5964 18.3671 31.7465 18.4869C31.8904 18.5993 32.0541 18.6835 32.2291 18.7352C32.4098 18.7884 32.5973 18.8148 32.7856 18.8136C33.0649 18.8114 33.3416 18.7598 33.603 18.6611C33.8759 18.5584 34.1301 18.4113 34.3551 18.2256L34.9464 19.0705C34.6394 19.3406 34.2796 19.5438 33.8899 19.6671C33.5078 19.7821 33.1107 19.8394 32.7117 19.837C32.3282 19.8411 31.9475 19.7716 31.59 19.6323C31.2634 19.5014 30.9673 19.3042 30.7205 19.0531C30.4692 18.7954 30.2738 18.4885 30.1466 18.1516C30.0062 17.7758 29.9369 17.377 29.9423 16.9758C29.9381 16.5792 30.0059 16.1853 30.1423 15.813C30.2624 15.4773 30.4487 15.1693 30.6901 14.9072C30.935 14.6527 31.2315 14.4538 31.5596 14.3236C31.9019 14.184 32.2682 14.1129 32.6378 14.1145L32.6422 14.1189ZM32.6204 15.1772C32.4277 15.1735 32.236 15.206 32.0552 15.273C31.8926 15.3326 31.7444 15.4261 31.6205 15.5473C31.4978 15.6736 31.3991 15.8212 31.3292 15.9828C31.2507 16.1544 31.1965 16.3362 31.1683 16.5228H33.9943C33.9606 16.1547 33.808 15.8076 33.5595 15.5343C33.3091 15.2873 32.9671 15.1563 32.6161 15.1728L32.6204 15.1772ZM40.3201 11.5843C40.6639 11.5831 41.0066 11.6211 41.3418 11.6975C41.66 11.7699 41.968 11.8811 42.2592 12.0285C42.5376 12.1697 42.7963 12.3469 43.0287 12.5555C43.2554 12.7573 43.4503 12.9922 43.607 13.2523L42.5374 13.9665C42.2988 13.6142 41.978 13.3257 41.6027 13.126C41.2008 12.915 40.7519 12.8101 40.2984 12.8211C39.9145 12.8171 39.5335 12.8881 39.1767 13.0302C38.8497 13.1664 38.5539 13.3679 38.3072 13.6224C38.0522 13.8847 37.8526 14.1958 37.7202 14.537C37.4364 15.2951 37.4364 16.1305 37.7202 16.8887C37.8526 17.2299 38.0522 17.5409 38.3072 17.8032C38.5539 18.0577 38.8497 18.2592 39.1767 18.3955C39.5335 18.5376 39.9145 18.6086 40.2984 18.6045C41.1813 18.6239 42.0141 18.1946 42.5113 17.4635L43.5548 18.23C43.3851 18.479 43.1833 18.7045 42.9548 18.9007C42.7305 19.1043 42.4823 19.2797 42.2157 19.4233C41.9311 19.5663 41.6304 19.6745 41.3201 19.7455C40.4271 19.9434 39.4957 19.8737 38.6419 19.5452C37.6459 19.1548 36.8578 18.3655 36.4681 17.3677C36.0604 16.3082 36.0604 15.1348 36.4681 14.0754C36.8578 13.0776 37.6459 12.2882 38.6419 11.8979C39.1758 11.6856 39.7457 11.5791 40.3201 11.5843ZM47.3198 14.1015C47.7187 14.0969 48.1146 14.1709 48.485 14.3192C48.8299 14.4571 49.1445 14.6612 49.4111 14.9202C49.6737 15.1782 49.8821 15.4862 50.0241 15.8261C50.319 16.555 50.319 17.3704 50.0241 18.0993C49.8821 18.4392 49.6737 18.7472 49.4111 19.0052C49.1445 19.2642 48.8299 19.4683 48.485 19.6062C47.7355 19.8979 46.9042 19.8979 46.1547 19.6062C45.8094 19.4691 45.4946 19.2649 45.2286 19.0052C44.9636 18.7532 44.7508 18.4513 44.6026 18.1168C44.3077 17.3878 44.3077 16.5725 44.6026 15.8435C44.7436 15.5042 44.9505 15.1963 45.2112 14.9376C45.4772 14.6779 45.792 14.4737 46.1373 14.3367C46.5141 14.184 46.9177 14.1084 47.3242 14.1145L47.3198 14.1015ZM47.3198 15.2207C47.0891 15.2183 46.8602 15.2612 46.646 15.347C46.4438 15.4278 46.2603 15.5494 46.1069 15.7041C45.9531 15.8617 45.8319 16.0482 45.7503 16.2528C45.5764 16.7085 45.5764 17.2125 45.7503 17.6682C45.8319 17.8729 45.9531 18.0593 46.1069 18.2169C46.2604 18.3715 46.4439 18.493 46.646 18.574C47.0792 18.744 47.5605 18.744 47.9937 18.574C48.4043 18.4128 48.7311 18.0902 48.898 17.6813C49.072 17.2256 49.072 16.7216 48.898 16.2659C48.8158 16.0606 48.6931 15.8739 48.5372 15.7172C48.3819 15.5627 48.197 15.4413 47.9937 15.3601C47.7809 15.2748 47.5534 15.2319 47.3242 15.2338L47.3198 15.2207ZM53.8109 14.1015C54.4764 14.0757 55.1131 14.3743 55.5195 14.9028V11.5059H56.7064V19.6976H55.5195V19.0444C55.33 19.2869 55.0896 19.4846 54.8152 19.6236C54.5026 19.7755 54.1582 19.8502 53.8109 19.8413C53.0858 19.8483 52.3897 19.5571 51.8849 19.0357C51.6328 18.7711 51.4362 18.4587 51.3067 18.1168C51.0272 17.3758 51.0272 16.5583 51.3067 15.8173C51.4379 15.4802 51.6344 15.1723 51.8849 14.9115C52.3897 14.3901 53.0858 14.0989 53.8109 14.1058V14.1015ZM53.9544 15.2207C53.718 15.217 53.4837 15.2645 53.2674 15.3601C53.0723 15.4478 52.8976 15.5754 52.7544 15.7346C52.6124 15.8963 52.5031 16.0841 52.4327 16.2877C52.2816 16.725 52.2816 17.2004 52.4327 17.6377C52.5031 17.8413 52.6124 18.0291 52.7544 18.1908C52.8976 18.35 53.0723 18.4776 53.2674 18.5653C53.7015 18.7463 54.1898 18.7463 54.6239 18.5653C54.8198 18.4805 54.9959 18.356 55.1413 18.1995C55.2829 18.049 55.3949 17.8732 55.4717 17.6813C55.6306 17.2334 55.6306 16.7443 55.4717 16.2964C55.397 16.0933 55.2833 15.9069 55.1369 15.7477C54.9913 15.5915 54.8152 15.467 54.6196 15.3818C54.4106 15.2865 54.184 15.236 53.9544 15.2338V15.2207ZM60.6498 14.1015C61.0069 14.0981 61.3608 14.1693 61.6889 14.3105C61.9974 14.4441 62.2733 14.6432 62.4975 14.8941C62.729 15.1579 62.9077 15.464 63.0236 15.7956C63.1547 16.169 63.2194 16.5625 63.2149 16.9583V17.1848V17.4026H59.202C59.2304 17.6245 59.3013 17.8389 59.4107 18.034C59.5045 18.2019 59.63 18.3498 59.7802 18.4695C59.924 18.582 60.0878 18.6662 60.2628 18.7178C60.4435 18.7709 60.631 18.7973 60.8193 18.7961C61.0986 18.794 61.3753 18.7424 61.6367 18.6437C61.9096 18.541 62.1637 18.3938 62.3888 18.2082L62.9801 19.0531C62.6729 19.323 62.3132 19.5261 61.9236 19.6497C61.5415 19.7648 61.1444 19.822 60.7454 19.8196C60.3619 19.8237 59.9811 19.7542 59.6237 19.6149C59.2971 19.484 59.001 19.2868 58.7542 19.0357C58.5029 18.778 58.3075 18.4711 58.1803 18.1342C58.0399 17.7583 57.9706 17.3596 57.976 16.9583C57.9718 16.5618 58.0396 16.1678 58.1759 15.7956C58.2988 15.4592 58.4881 15.1512 58.7324 14.8897C58.9774 14.6353 59.2739 14.4363 59.602 14.3062C59.936 14.1764 60.2915 14.1114 60.6498 14.1145V14.1015ZM63.7844 19.6846V19.4233H63.8931V19.3666H63.6105V19.4233H63.7323V19.6976L63.7844 19.6846ZM64.3279 19.6846V19.3536H64.2409L64.1409 19.58L64.0409 19.3536H63.954V19.6846H64.0148V19.4363L64.1062 19.6497H64.167L64.2583 19.4363V19.6846H64.3279ZM60.628 15.1597C60.4353 15.156 60.2436 15.1885 60.0628 15.2556C59.9002 15.3152 59.752 15.4087 59.6281 15.5299C59.5054 15.6562 59.4067 15.8038 59.3368 15.9654C59.2583 16.137 59.2042 16.3188 59.1759 16.5054H61.9932C61.9623 16.1327 61.8095 15.7806 61.5584 15.5038C61.3061 15.2714 60.9702 15.1519 60.628 15.1728V15.1597Z" fill="#F79E1B"/>
    <path d="M9.52404 8.47914H8.19363V1.69408L5.78936 7.66474H4.38942L1.99386 1.75941V8.47914H0.654785V0.23517H2.69384L5.0894 6.12744L7.48064 0.23517H9.51964L9.52404 8.47914ZM16.5237 8.47914H15.2933V7.80414C15.0968 8.05564 14.8474 8.26084 14.5629 8.40514C14.2392 8.56104 13.8829 8.63724 13.5238 8.62724C12.7709 8.63524 12.0477 8.33284 11.5239 7.79104C11.2639 7.52024 11.06 7.20054 10.9239 6.85034C10.6338 6.08144 10.6338 5.23284 10.9239 4.46384C11.0601 4.11377 11.264 3.79409 11.5239 3.52317C12.0477 2.98134 12.7709 2.679 13.5238 2.68702C13.8833 2.67748 14.2398 2.75518 14.5629 2.91348C14.8473 3.05981 15.0965 3.26636 15.2933 3.51882V2.83944H16.5237V8.47914ZM13.6673 3.8498C13.422 3.84561 13.1788 3.89464 12.9543 3.99351C12.7525 4.08448 12.5719 4.21647 12.4239 4.3811C12.2764 4.54934 12.1628 4.74454 12.0891 4.95594C11.9321 5.41014 11.9321 5.90404 12.0891 6.35824C12.1635 6.57024 12.2787 6.76554 12.4282 6.93314C12.5761 7.09794 12.7568 7.22994 12.9586 7.32074C13.4093 7.50944 13.9166 7.50944 14.3673 7.32074C14.5696 7.23244 14.7516 7.10354 14.902 6.94184C15.0536 6.77594 15.1717 6.58224 15.2498 6.37134C15.4143 5.90644 15.4143 5.39904 15.2498 4.93414C15.1717 4.72334 15.0536 4.52954 14.902 4.36368C14.7514 4.20217 14.5694 4.07324 14.3673 3.9848C14.1462 3.8905 13.9075 3.84447 13.6673 3.8498ZM22.1626 4.25045C22.0597 4.19122 21.9538 4.13744 21.8452 4.08932C21.7038 4.02774 21.5586 3.97537 21.4105 3.93254C21.2505 3.88411 21.0879 3.84485 20.9235 3.81496C20.7514 3.78316 20.5768 3.76712 20.4018 3.76705C20.1269 3.75133 19.8534 3.81642 19.6149 3.95431C19.4418 4.05544 19.3357 4.24137 19.3366 4.44204C19.3335 4.53064 19.3594 4.61794 19.4105 4.69034C19.4623 4.75974 19.5292 4.81634 19.6062 4.85584C19.6997 4.90344 19.7991 4.93854 19.9018 4.96034C20.0149 4.98644 20.1366 5.00964 20.267 5.03004L20.8496 5.11714C21.3675 5.17084 21.863 5.35674 22.2887 5.65714C22.6461 5.92284 22.8495 6.34824 22.8321 6.79374C22.8347 7.05234 22.775 7.30784 22.6582 7.53844C22.5361 7.76114 22.3652 7.95324 22.1583 8.10024C21.9155 8.27474 21.6429 8.40314 21.3539 8.47914C20.9995 8.57374 20.6338 8.61924 20.267 8.61414C20.1221 8.61414 19.954 8.60544 19.7627 8.58804C19.5561 8.56834 19.3512 8.53344 19.1497 8.48344C18.9239 8.42684 18.703 8.35264 18.4888 8.26134C18.2616 8.16444 18.047 8.04014 17.8497 7.89124L18.4193 6.96794C18.5243 7.04934 18.6347 7.12354 18.7497 7.19004C18.8786 7.26334 19.0139 7.32464 19.154 7.37294C19.3169 7.42894 19.4841 7.47124 19.654 7.49924C19.8595 7.53274 20.0675 7.54874 20.2757 7.54714C20.6052 7.56584 20.934 7.50144 21.2322 7.35994C21.4279 7.26954 21.5547 7.07494 21.5583 6.85904C21.5553 6.69474 21.4661 6.54414 21.3235 6.46274C21.0958 6.33594 20.844 6.25874 20.5844 6.23634L19.9975 6.15794C19.4794 6.11584 18.9844 5.92534 18.5714 5.60924C18.2475 5.33514 18.0665 4.92764 18.0801 4.50304C18.0766 4.24112 18.1331 3.98187 18.2454 3.74528C18.353 3.5208 18.5125 3.32524 18.7106 3.17477C18.9301 3.01185 19.1777 2.89079 19.441 2.81767C19.7565 2.72947 20.083 2.68695 20.4105 2.69137C20.8329 2.68896 21.2538 2.74166 21.6626 2.84815C22.0266 2.93866 22.3743 3.0856 22.693 3.28365L22.1626 4.25045ZM27.9972 3.95431H25.8233V6.41054C25.823 6.57664 25.851 6.74154 25.9059 6.89824C25.9459 7.01944 26.0111 7.13084 26.0972 7.22494C26.1754 7.30874 26.2722 7.37294 26.3798 7.41214C26.4927 7.45314 26.6119 7.47374 26.732 7.47314C26.9329 7.47154 27.1318 7.43314 27.3189 7.35994C27.5101 7.28854 27.6936 7.19804 27.8667 7.08994L28.3537 8.07414C28.1142 8.23454 27.8575 8.36744 27.5885 8.47044C27.2812 8.58454 26.9554 8.64074 26.6276 8.63594C26.0798 8.66784 25.5428 8.47434 25.1407 8.10024C24.7454 7.64064 24.5512 7.04114 24.6016 6.43664V3.95867H23.4843V2.83944H24.6016V1.13229H25.8364V2.83944H28.0102L27.9972 3.95431ZM31.7796 2.68702C32.1499 2.68234 32.5171 2.75501 32.8578 2.90041C33.178 3.03896 33.4643 3.2455 33.6969 3.50575C33.9378 3.77974 34.1238 4.09763 34.2447 4.44204C34.3797 4.82964 34.4459 5.23794 34.4404 5.64844V5.88354V6.10564H30.2536C30.2841 6.33524 30.3579 6.55694 30.471 6.75894C30.5698 6.92704 30.6997 7.07484 30.8536 7.19444C31.0027 7.31054 31.1723 7.39774 31.3535 7.45134C31.5412 7.50714 31.736 7.53504 31.9318 7.53414C32.2287 7.53484 32.5233 7.48174 32.8013 7.37734C33.0827 7.27574 33.3456 7.12854 33.5795 6.94184L34.1926 7.81284C33.8739 8.09244 33.5009 8.30304 33.097 8.43124C32.7008 8.55124 32.2891 8.61134 31.8753 8.60974C31.4709 8.62384 31.0678 8.55874 30.6884 8.41814C30.3455 8.28384 30.0345 8.07914 29.7753 7.81714C29.5145 7.54954 29.3117 7.23074 29.1797 6.88084C29.0338 6.49114 28.9615 6.07764 28.9667 5.66144C28.9615 5.25034 29.0308 4.84164 29.171 4.45514C29.2986 4.10581 29.4953 3.78587 29.7493 3.51446C29.9938 3.2542 30.29 3.04801 30.6188 2.90912C30.9869 2.75826 31.3819 2.68417 31.7796 2.69137V2.68702ZM31.7579 3.78447C31.5577 3.78078 31.3586 3.81476 31.1709 3.88463C31.0077 3.94931 30.8597 4.04718 30.7362 4.17206C30.6098 4.29808 30.5068 4.44554 30.4318 4.60754C30.3456 4.78824 30.2856 4.98034 30.2536 5.17804H33.1752C33.1362 4.79424 32.971 4.43424 32.7057 4.15464C32.4528 3.90784 32.1108 3.77428 31.7579 3.78447ZM38.7141 2.68702C38.8845 2.68594 39.0546 2.69905 39.2228 2.72621C39.3715 2.75211 39.5171 2.79296 39.6576 2.84815L39.3619 4.06754C39.2244 3.99765 39.0782 3.94639 38.9272 3.91512C38.7684 3.88164 38.6068 3.86413 38.4446 3.86286C38.2601 3.86111 38.077 3.89513 37.9055 3.96302C37.7395 4.02657 37.5907 4.12796 37.4707 4.25916C37.3467 4.39843 37.252 4.56134 37.1924 4.73824C37.1231 4.94434 37.0893 5.16084 37.0925 5.37844V8.48344H35.8621V2.82202H37.0794V3.45785C37.2517 3.20485 37.489 3.00321 37.7663 2.87428C38.0613 2.74713 38.38 2.68476 38.7011 2.69137L38.7141 2.68702ZM42.9183 2.68702C43.3236 2.68287 43.7257 2.75986 44.1009 2.91348C44.4583 3.06017 44.7746 3.29186 45.0226 3.5885L44.2357 4.42904C44.0532 4.25122 43.8433 4.10415 43.6139 3.99351C43.3843 3.89037 43.1351 3.83837 42.8835 3.84109C42.6581 3.83894 42.4346 3.88342 42.227 3.97173C42.0264 4.05681 41.8458 4.18289 41.6966 4.34191C41.5444 4.50734 41.4262 4.70124 41.3488 4.91244C41.1793 5.38684 41.1793 5.90554 41.3488 6.38004C41.4263 6.59124 41.5445 6.78504 41.6966 6.95054C41.8459 7.10944 42.0265 7.23554 42.227 7.32074C42.4346 7.40904 42.6581 7.45354 42.8835 7.45134C43.1449 7.45384 43.4035 7.39724 43.64 7.28584C43.8687 7.17414 44.0785 7.02714 44.2617 6.85034L45.0182 7.69964C44.7651 7.99434 44.4464 8.22554 44.0878 8.37464C43.7142 8.52834 43.3135 8.60534 42.9096 8.60104C42.4929 8.60694 42.0791 8.52994 41.6923 8.37464C40.9845 8.09204 40.4277 7.52484 40.1575 6.81114C39.875 6.05134 39.875 5.21494 40.1575 4.45514C40.4277 3.74151 40.9845 3.17427 41.6923 2.8917C42.0796 2.74582 42.4917 2.67775 42.9053 2.69137L42.9183 2.68702ZM51.5571 8.47914H50.3267V7.80414C50.1302 8.05564 49.8808 8.26084 49.5963 8.40514C49.2726 8.56104 48.9163 8.63724 48.5572 8.62724C47.8043 8.63524 47.0811 8.33284 46.5573 7.79104C46.2973 7.52024 46.0934 7.20054 45.9573 6.85034C45.6672 6.08144 45.6672 5.23284 45.9573 4.46384C46.0935 4.11377 46.2974 3.79409 46.5573 3.52317C47.0811 2.98134 47.8043 2.679 48.5572 2.68702C48.9167 2.67748 49.2732 2.75518 49.5963 2.91348C49.8807 3.05981 50.13 3.26636 50.3267 3.51882V2.83944H51.5571V8.47914ZM48.705 3.8498C48.4598 3.84561 48.2166 3.89464 47.992 3.99351C47.7903 4.08448 47.6097 4.21647 47.4616 4.3811C47.3142 4.54934 47.2005 4.74454 47.1268 4.95594C46.9698 5.41014 46.9698 5.90404 47.1268 6.35824C47.2005 6.56964 47.3142 6.76484 47.4616 6.93314C47.6096 7.09784 47.7902 7.22984 47.992 7.32074C48.4428 7.50894 48.9499 7.50894 49.4007 7.32074C49.6029 7.23234 49.7849 7.10344 49.9354 6.94184C50.0876 6.77634 50.2058 6.58254 50.2832 6.37134C50.4484 5.90654 50.4484 5.39894 50.2832 4.93414C50.2058 4.72304 50.0876 4.52914 49.9354 4.36368C49.7848 4.20217 49.6029 4.07324 49.4007 3.9848C49.1822 3.89183 48.9467 3.84584 48.7094 3.8498H48.705ZM56.2221 2.69137C56.3925 2.6903 56.5626 2.70341 56.7308 2.73057C56.8795 2.75647 57.0251 2.79732 57.1656 2.85251L56.8699 4.0719C56.7324 4.00201 56.5862 3.95075 56.4352 3.91947C56.2764 3.88605 56.1148 3.86855 55.9526 3.86722C55.7681 3.86536 55.585 3.89937 55.4135 3.96738C55.2476 4.03092 55.0987 4.13232 54.9787 4.26352C54.8547 4.40279 54.76 4.56574 54.7005 4.74254C54.6311 4.94874 54.5973 5.16524 54.6005 5.38274V8.48784H53.3701V2.82638H54.6005V3.4622C54.7732 3.20685 55.0122 3.00357 55.2917 2.87428C55.5867 2.74726 55.9054 2.68489 56.2265 2.69137H56.2221ZM60.2568 2.69137C60.6163 2.68184 60.9728 2.75953 61.2959 2.91783C61.5802 3.06428 61.8294 3.27081 62.0263 3.52317V0H63.2567V8.47914H62.0263V7.80414C61.8297 8.05564 61.5804 8.26084 61.2959 8.40514C60.9721 8.56104 60.6159 8.63724 60.2568 8.62724C59.5038 8.63524 58.7807 8.33284 58.2568 7.79104C57.9923 7.52124 57.7839 7.20154 57.6438 6.85034C57.3537 6.08144 57.3537 5.23284 57.6438 4.46384C57.78 4.11377 57.9839 3.79409 58.2438 3.52317C58.7676 2.98134 59.4908 2.679 60.2437 2.68702L60.2568 2.69137ZM64.6914 7.96084C64.7405 7.95974 64.7893 7.96864 64.8349 7.98704C64.8786 8.00534 64.9185 8.03194 64.9522 8.06544C64.9853 8.09774 65.0119 8.13624 65.0305 8.17864C65.0687 8.26764 65.0687 8.36834 65.0305 8.45734C65.0118 8.49974 64.9852 8.53814 64.9522 8.57054C64.9184 8.60384 64.8785 8.63044 64.8349 8.64894C64.7897 8.66914 64.7408 8.67954 64.6914 8.67944C64.545 8.68154 64.4115 8.59584 64.3523 8.46174C64.3141 8.37274 64.3141 8.27194 64.3523 8.18304C64.3894 8.09564 64.4598 8.02664 64.5479 7.99134C64.5946 7.97114 64.6449 7.96074 64.6957 7.96084H64.6914ZM64.6914 8.60104C64.7287 8.60154 64.7658 8.59414 64.8001 8.57934C64.8326 8.56454 64.8621 8.54384 64.887 8.51834C64.9947 8.40824 64.9947 8.23214 64.887 8.12204C64.8622 8.09634 64.8327 8.07564 64.8001 8.06104C64.7642 8.05364 64.7272 8.05364 64.6914 8.06104C64.6555 8.05404 64.6186 8.05404 64.5827 8.06104C64.5044 8.09914 64.4483 8.17164 64.4313 8.25714C64.4142 8.34264 64.438 8.43124 64.4957 8.49654C64.5206 8.52224 64.5501 8.54284 64.5827 8.55754C64.6171 8.57864 64.6557 8.59204 64.6957 8.59674L64.6914 8.60104ZM64.6914 8.16554C64.7273 8.16354 64.7627 8.17434 64.7914 8.19604C64.8147 8.21524 64.8275 8.24424 64.8261 8.27444C64.8277 8.30034 64.8182 8.32564 64.8001 8.34414C64.7786 8.36424 64.7511 8.37654 64.7218 8.37894L64.8305 8.50524H64.7435L64.6435 8.37894H64.6131V8.50524H64.5436V8.16994L64.6914 8.16554ZM64.6088 8.22654V8.31364H64.6914C64.7056 8.31774 64.7207 8.31774 64.7349 8.31364C64.7403 8.30264 64.7403 8.28974 64.7349 8.27884C64.7411 8.26804 64.7411 8.25474 64.7349 8.24394C64.7206 8.24004 64.7056 8.24004 64.6914 8.24394L64.6088 8.22654ZM60.3828 3.87157C60.1376 3.86739 59.8944 3.91641 59.6698 4.01528C59.4681 4.10625 59.2875 4.23825 59.1394 4.40288C58.992 4.57114 58.8783 4.76634 58.8046 4.97774C58.6476 5.43194 58.6476 5.92584 58.8046 6.38004C58.8783 6.59144 58.992 6.78664 59.1394 6.95494C59.2874 7.11964 59.4681 7.25164 59.6698 7.34244C60.1206 7.53074 60.6277 7.53074 61.0785 7.34244C61.2807 7.25414 61.4627 7.12524 61.6132 6.96364C61.7803 6.79064 61.9092 6.58434 61.9915 6.35824C62.1563 5.89344 62.1563 5.38594 61.9915 4.92114C61.914 4.70994 61.7958 4.51614 61.6437 4.35062C61.4931 4.18911 61.3111 4.06017 61.1089 3.97173C60.8868 3.88203 60.6482 3.84047 60.4089 3.8498L60.3828 3.87157Z" fill="#EB001B"/>
</svg>
