<svg viewBox="0 0 56 24" fill="none" xmlns="http://www.w3.org/2000/svg">
    <path fill-rule="evenodd" clip-rule="evenodd" d="M22.4631 12.7686L19.6793 20.268L19.3824 18.7443C18.6892 16.8758 17.1882 14.9156 15.4402 14.1212L17.9869 23.751L20.9974 23.7496L25.4744 12.7686H22.4631Z" fill="#1B548E"/>
    <path fill-rule="evenodd" clip-rule="evenodd" d="M24.8494 23.7623L26.629 12.7583H29.473L27.6921 23.7623H24.8494Z" fill="#1B548E"/>
    <path fill-rule="evenodd" clip-rule="evenodd" d="M38.0089 13.0294C37.4469 12.8076 36.5602 12.5664 35.4601 12.5664C32.6466 12.5664 30.6701 14.0603 30.6528 16.1972C30.6347 17.7799 32.0662 18.6627 33.1422 19.1885C34.2528 19.7266 34.6237 20.072 34.6202 20.5534C34.6094 21.2906 33.7317 21.6267 32.916 21.6267C31.7792 21.6267 31.1733 21.4608 30.2413 21.0515L29.8719 20.876L29.4739 23.3387C30.1393 23.6452 31.3677 23.9109 32.6445 23.9246C35.6302 23.9246 37.5728 22.4476 37.5959 20.1669C37.6079 18.9115 36.848 17.9612 35.2056 17.1767C34.2142 16.6666 33.6011 16.3285 33.6101 15.8115C33.611 15.3549 34.1245 14.8656 35.2397 14.8656C36.1712 14.8501 36.841 15.0635 37.3682 15.2886L37.6219 15.4147L38.0089 13.0294ZM45.3032 12.7696H43.1061C42.4248 12.7696 41.9142 12.9635 41.6135 13.6828L37.3916 23.7655H40.3787C40.3787 23.7655 40.8671 22.4085 40.9776 22.111C41.3034 22.111 44.2046 22.1177 44.6188 22.1177C44.7067 22.5014 44.9651 23.7655 44.9651 23.7655H47.6062L45.3032 12.7696ZM41.7959 19.8603C42.032 19.2288 42.9289 16.7846 42.9289 16.7846C42.9114 16.8144 43.1622 16.1481 43.3071 15.7362L43.4965 16.6847C43.4965 16.6847 44.043 19.3106 44.157 19.8603H41.7959Z" fill="#1B548E"/>
    <path fill-rule="evenodd" clip-rule="evenodd" d="M17.097 12.7632H12.51L12.4832 12.9527C16.0495 13.8639 18.4028 16.1014 19.3824 18.7474L18.3855 13.6901C18.2143 12.9944 17.7151 12.7877 17.097 12.7632Z" fill="#E89F3E"/>
    <path fill-rule="evenodd" clip-rule="evenodd" d="M3.9059 10.1042H2.0921L0 0.683005L2.0044 0.348145L3.436 7.7212L7.082 0.445535H9.0074L3.9059 10.1042Z" fill="#1B548E"/>
    <path fill-rule="evenodd" clip-rule="evenodd" d="M13.3377 7.0242H9.01267C8.89457 8.3342 9.50397 8.9058 10.5365 8.9058C11.4016 8.9058 12.1626 8.585 12.9815 8.0694L12.9751 9.3794C12.1719 9.8812 11.2437 10.2018 10.1554 10.2018C8.27207 10.2018 7.02827 9.1286 7.40207 6.7033C7.73897 4.51539 9.25437 3.19166 11.0123 3.19166C13.0353 3.19166 13.708 4.7107 13.414 6.6201C13.3927 6.7594 13.3526 6.9266 13.3377 7.0242ZM10.7925 4.34839C10.1227 4.34839 9.49687 4.8777 9.20177 5.97896H11.8803C11.9297 4.93347 11.6015 4.34839 10.7925 4.34839ZM16.1568 6.202L15.5621 10.0625H13.8881L14.925 3.33063H16.3482L16.3491 4.68268C16.9158 3.90228 17.6865 3.24742 18.7412 3.19166L18.7509 4.84997C17.6938 4.91974 16.7428 5.47709 16.1568 6.202ZM18.7289 10.0625L19.7662 3.33063H21.4402L20.4033 10.0625H18.7289ZM20.7911 2.20193C20.2332 2.20193 19.8468 1.81158 19.9327 1.25424C20.0207 0.68288 20.5295 0.27853 21.0874 0.27853C21.6316 0.27853 22.0156 0.68288 21.9277 1.25424C21.8417 1.81158 21.3353 2.20193 20.7911 2.20193ZM26.0768 1.49102C25.5046 1.49102 25.1591 1.74181 25.0668 2.34148L24.9142 3.33063H26.1978L26.1966 4.6964H24.7038L23.877 10.0625H22.217L23.0438 4.6964H22.0671L22.2775 3.33063H23.2539L23.4322 2.1739C23.6619 0.68288 24.6965 0.12525 26.0777 0.12525C26.3708 0.12525 26.5897 0.15328 26.7531 0.18101L26.7656 1.54678C26.6023 1.51905 26.3556 1.49102 26.0768 1.49102ZM26.0949 10.0625L27.1321 3.33063H28.8061L27.7692 10.0625H26.0949ZM28.157 2.20193C27.5991 2.20193 27.2128 1.81158 27.2987 1.25424C27.3867 0.68288 27.8955 0.27853 28.4534 0.27853C28.9976 0.27853 29.3819 0.68288 29.2939 1.25424C29.208 1.81158 28.7012 2.20193 28.157 2.20193ZM35.2971 7.0242H30.972C30.854 8.3342 31.4633 8.9058 32.4958 8.9058C33.3609 8.9058 34.1217 8.585 34.9408 8.0694L34.9341 9.3794C34.1313 9.8812 33.2028 10.2018 32.1145 10.2018C30.2312 10.2018 28.9876 9.1286 29.3611 6.7033C29.6984 4.51539 31.2137 3.19166 32.9716 3.19166C34.9946 3.19166 35.6674 4.7107 35.3734 6.6201C35.3517 6.7594 35.312 6.9266 35.2971 7.0242ZM32.7516 4.34839C32.0817 4.34839 31.456 4.8777 31.1611 5.97896H33.8396C33.889 4.93347 33.5605 4.34839 32.7516 4.34839ZM40.2561 10.0625L40.2602 9.1286C39.6976 9.7002 38.9649 10.2018 38.03 10.2018C36.6207 10.2018 35.6522 9.1566 36.002 6.8846C36.3884 4.37612 37.9414 3.26114 39.5038 3.26114C40.1459 3.26114 40.6451 3.37267 41.0279 3.51193L41.5282 0.26451L43.2432 0L41.6931 10.0625H40.2561ZM40.8154 4.89172C40.427 4.6964 40.121 4.59889 39.5491 4.59889C38.67 4.59889 37.9189 5.3098 37.6912 6.7874C37.4896 8.0971 37.9531 8.7105 38.6925 8.7105C39.3062 8.7105 39.8364 8.3485 40.3686 7.7908L40.8154 4.89172ZM46.8215 10.1259C46.0289 10.1259 45.3831 9.9989 44.7816 9.7881L45.8828 2.64103L47.1816 2.44017L46.7052 5.53344C47.0849 5.19564 47.6124 4.85785 48.2571 4.85785C49.3349 4.85785 50.0568 5.66044 49.7932 7.3704C49.5038 9.2494 48.3436 10.1259 46.8215 10.1259ZM47.757 5.97662C47.3342 5.97662 46.9098 6.2619 46.5343 6.6423L46.178 8.954C46.4279 9.0489 46.6009 9.0912 46.9601 9.0912C47.7632 9.0912 48.3243 8.6057 48.5032 7.4443C48.6546 6.4624 48.3278 5.97662 47.757 5.97662ZM52.7809 10.337C52.133 11.5933 51.4918 11.9839 50.5089 11.9839C50.2868 11.9839 50.1635 11.9626 50.0521 11.9311L50.0439 10.8859C50.2067 10.9282 50.3812 10.9597 50.6243 10.9597C50.9943 10.9597 51.3161 10.791 51.5318 10.4214L51.6998 10.0836L50.6246 5.05842L51.9719 4.88967L52.5959 8.521L54.2854 4.96354H55.543L52.7809 10.337Z" fill="#1B548E"/>
</svg>
